Coordinates
version=1
nRows=60
nColumns=12
inDegrees=yes

Units are S.I. units (second, meters, Newtons, ...)
Angles are in degrees

endheader
time	SC_y	SC_z	SC_x	AC_y	AC_z	AC_x	GH_y	GH_z	GH_yy	EL_x	PS_y
       0.0              -55.55          38.65          6.822          56.08         -1.655          3.085          177.0          25.52          50.03          40.35           20.1
   0.02331              -55.55          38.64          6.826          56.07         -1.655          3.086          177.0          25.52          50.04          40.35          20.11
   0.04662              -55.54          38.63           6.83          56.07         -1.656          3.088          176.9          25.51          50.05          40.35          20.12
   0.06993              -55.53          38.63          6.834          56.07         -1.656          3.089          176.9           25.5          50.06          40.35          20.13
   0.09324              -55.53          38.62          6.839          56.07         -1.656          3.091          176.9           25.5          50.07          40.36          20.14
    0.1165              -55.52          38.61          6.844          56.07         -1.656          3.092          176.9          25.49          50.09          40.36          20.15
    0.1399              -55.51          38.61           6.85          56.07         -1.657          3.094          176.8          25.48           50.1          40.36          20.16
    0.1632               -55.5           38.6          6.855          56.06         -1.657          3.096          176.8          25.47          50.12          40.36          20.17
    0.1865              -55.49          38.59          6.861          56.06         -1.657          3.098          176.8          25.46          50.14          40.36          20.19
    0.2098              -55.48          38.58          6.868          56.06         -1.658            3.1          176.7          25.45          50.16          40.36           20.2
    0.2331              -55.47          38.57          6.875          56.06         -1.658          3.102          176.7          25.44          50.18          40.37          20.22
    0.2564              -55.45          38.56          6.883          56.06         -1.658          3.105          176.6          25.43           50.2          40.37          20.23
    0.2797              -55.44          38.54          6.891          56.05         -1.659          3.107          176.6          25.42          50.22          40.37          20.25
     0.303              -55.43          38.53            6.9          56.05         -1.659           3.11          176.5           25.4          50.25          40.37          20.27
    0.3263              -55.41          38.52           6.91          56.05          -1.66          3.113          176.5          25.39          50.28          40.38          20.29
    0.3496              -55.39           38.5           6.92          56.04         -1.661          3.116          176.4          25.37          50.31          40.38          20.31
     0.373              -55.38          38.49          6.931          56.04         -1.661           3.12          176.3          25.36          50.34          40.38          20.34
    0.3963              -55.36          38.47          6.944          56.04         -1.662          3.124          176.3          25.34          50.37          40.39          20.37
    0.4196              -55.33          38.45          6.957          56.03         -1.663          3.128          176.2          25.32          50.41          40.39           20.4
    0.4429              -55.31          38.43          6.972          56.03         -1.663          3.133          176.1          25.29          50.45           40.4          20.43
    0.4662              -55.28           38.4          6.988          56.02         -1.664          3.138          176.0          25.27           50.5           40.4          20.46
    0.4895              -55.26          38.38          7.006          56.01         -1.665          3.144          175.9          25.24          50.55          40.41           20.5
    0.5128              -55.22          38.35          7.026          56.01         -1.666           3.15          175.8          25.21          50.61          40.41          20.55
    0.5361              -55.19          38.31          7.048           56.0         -1.667          3.157          175.6          25.18          50.67          40.42          20.59
    0.5594              -55.15          38.28          7.072          55.99         -1.669          3.165          175.5          25.14          50.74          40.42          20.65
    0.5827              -55.11          38.24          7.099          55.98          -1.67          3.173          175.3           25.1          50.82          40.43           20.7
    0.6061              -55.06          38.19           7.13          55.97         -1.672          3.183          175.2          25.05           50.9          40.44          20.77
    0.6294               -55.0          38.14          7.164          55.96         -1.674          3.194          175.0           25.0           51.0          40.45          20.85
    0.6527              -54.94          38.09          7.203          55.95         -1.676          3.206          174.7          24.94          51.11          40.46          20.93
     0.676              -54.87          38.02          7.247          55.94         -1.678           3.22          174.5          24.88          51.24          40.48          21.02
    0.6993              -54.79          37.95          7.297          55.92         -1.681          3.236          174.2           24.8          51.38          40.49          21.13
    0.7226              -54.69          37.87          7.354           55.9         -1.684          3.255          173.8          24.71          51.54          40.51          21.26
    0.7459              -54.59          37.77          7.421          55.88         -1.688          3.276          173.4          24.61          51.73          40.53           21.4
    0.7692              -54.46          37.66          7.498          55.85         -1.692            3.3          173.0          24.49          51.95          40.55          21.57
    0.7925              -54.32          37.52          7.588          55.83         -1.697          3.329          172.4          24.36          52.21          40.58          21.77
    0.8158              -54.15          37.37          7.694          55.79         -1.702          3.363          171.8          24.19          52.51          40.61           22.0
    0.8392              -53.94          37.18          7.821          55.75         -1.709          3.403          171.0           24.0          52.87          40.65          22.27
    0.8625               -53.7          36.96          7.972           55.7         -1.718          3.451          170.1          23.77           53.3          40.69           22.6
    0.8858               -53.4          36.69          8.156          55.64         -1.727          3.509          169.0          23.49          53.82          40.75           23.0
    0.9091              -53.04          36.36           8.38          55.57          -1.74          3.581          167.7          23.15          54.46          40.81          23.49
    0.9324              -52.59          35.96          8.656          55.48         -1.755          3.669          166.1          22.73          55.25          40.89          24.09
    0.9557              -52.04          35.45          9.001          55.36         -1.773          3.778          164.0          22.21          56.23           41.0          24.84
     0.979              -51.34          34.82          9.435          55.22         -1.797          3.916          161.4          21.54          57.47          41.13          25.79
     1.002              -50.45          34.01          9.988          55.04         -1.827          4.092          158.1           20.7          59.04          41.29          26.99
     1.026              -49.31          32.97          10.69          54.81         -1.865          4.317          153.9          19.63          61.05           41.5          28.52
     1.049              -47.84          31.64           11.6          54.51         -1.914          4.605          148.5          18.25          63.64          41.77           30.5
     1.072              -45.98          29.94          12.76          54.14         -1.977          4.973          141.6          16.49          66.94          42.11          33.01
     1.096              -43.63          27.81          14.22          53.66         -2.056          5.437          133.0          14.27          71.08          42.54          36.18
     1.119              -40.76          25.21          15.99          53.08         -2.152          6.001          122.4          11.57          76.14          43.07          40.04
     1.142              -37.45          22.19          18.05          52.41         -2.264          6.655          110.1          8.436           82.0          43.68          44.52
     1.165              -33.85          18.93          20.28          51.68         -2.385          7.364          96.86          5.046          88.34          44.34          49.36
     1.189              -30.26          15.67           22.5          50.95         -2.505          8.072          83.59          1.655          94.69           45.0          54.21
     1.212              -26.94          12.65          24.56          50.28         -2.617          8.726          71.33         -1.476          100.5          45.61          58.68
     1.235              -24.08          10.05          26.34           49.7         -2.713          9.291          60.76         -4.177          105.6          46.13          62.54
     1.259              -21.73          7.915          27.79          49.23         -2.792          9.754          52.09         -6.394          109.8          46.57          65.71
     1.282              -19.86          6.218          28.95          48.85         -2.855          10.12          45.19         -8.157          113.0          46.91          68.23
     1.305               -18.4          4.889          29.86          48.55         -2.904          10.41          39.79         -9.537          115.6          47.18           70.2
     1.329              -17.26          3.853          30.56          48.32         -2.942          10.64          35.58         -10.61          117.6          47.39          71.74
     1.352              -16.37          3.044          31.12          48.14         -2.972          10.81          32.29         -11.45          119.2          47.55          72.94
     1.375              -15.67          2.408          31.55           48.0         -2.996          10.95           29.7         -12.11          120.5          47.68          73.89
